<svg id="Layer_1" data-name="Layer 1" xmlns="http://www.w3.org/2000/svg" viewBox="0 0 460.55 337.72"><defs><style>.cls-1{fill:#f1f2f2;}.cls-1,.cls-12,.cls-13,.cls-14,.cls-2,.cls-3,.cls-4,.cls-9{stroke:#231f20;stroke-miterlimit:10;}.cls-2{fill:#00a79d;}.cls-3{font-size:21.49px;}.cls-10,.cls-3,.cls-5,.cls-6,.cls-7,.cls-8{fill:#231f20;}.cls-3,.cls-5,.cls-6{font-family:MyriadPro-Regular, Myriad Pro;}.cls-4{fill:#ffde17;opacity:0.71;}.cls-5{font-size:17.1px;}.cls-6{font-size:19.89px;}.cls-7,.cls-8{font-size:21.49px;font-family:PTMono-Regular, PT Mono;}.cls-8{letter-spacing:-0.02em;}.cls-12,.cls-13,.cls-14,.cls-9{fill:none;}.cls-11{opacity:0.44;}.cls-12,.cls-13,.cls-14{stroke-dasharray:12 3;}.cls-13{opacity:0.51;}.cls-14{opacity:0.5;}</style></defs><title>lstm</title><rect class="cls-1" x="69.67" y="51" width="375.73" height="243.91" rx="12" ry="12"/><ellipse class="cls-2" cx="388.98" cy="164.28" rx="10.93" ry="10.72"/><text class="cls-3" transform="translate(382.09 169.9) scale(1.08 1)">×</text><rect class="cls-4" x="366.73" y="210.13" width="45.53" height="19.06"/><text class="cls-5" transform="translate(372.7 225.13) scale(0.99 1)">tanh</text><rect class="cls-4" x="261.12" y="211.98" width="32.56" height="15.38"/><text class="cls-6" transform="translate(272.62 225.19) scale(1.06 1)">σ</text><rect class="cls-4" x="183.9" y="211.98" width="32.56" height="15.38"/><text class="cls-6" transform="translate(195.39 225.19) scale(1.06 1)">σ</text><text class="cls-7" transform="translate(106 318.89)">x</text><text class="cls-7" transform="translate(118.89 326.04) scale(0.58)">t</text><text class="cls-7" transform="translate(413.76 168.84)">h</text><text class="cls-7" transform="translate(426.65 175.99) scale(0.58)">t</text><text class="cls-7" transform="translate(3.61 85)">h</text><text class="cls-7" transform="translate(16.5 92.16) scale(0.58)">t-1</text><text class="cls-7" transform="translate(176.75 201.72)">r</text><text class="cls-7" transform="translate(189.64 208.88) scale(0.58)">t</text><text class="cls-7" transform="translate(251.83 169.9)">z</text><text class="cls-7" transform="translate(264.73 177.06) scale(0.58)">t</text><text class="cls-7" transform="translate(412.76 155.53)">~</text><text class="cls-7" transform="translate(420.26 19.78)">h</text><text class="cls-7" transform="translate(433.15 26.93) scale(0.58)">t</text><ellipse class="cls-2" cx="165.81" cy="167.28" rx="10.93" ry="10.72"/><text class="cls-3" transform="translate(158.92 172.9) scale(1.08 1)">×</text><rect class="cls-4" x="259.65" y="74.13" width="137.91" height="33.73"/><text class="cls-7" transform="translate(261.65 97.32)">(1-z</text><text class="cls-7" transform="translate(313.22 104.47) scale(0.58)">t</text><text class="cls-7" transform="translate(320.74 97.32)">)x+z</text><text class="cls-7" transform="translate(372.32 104.47) scale(0.58)">t</text><text class="cls-8" transform="translate(379.83 97.32)">y</text><path class="cls-9" d="M277.4,210.13c0-24.42,41.8-44.35,94.62-45.77"/><path class="cls-10" d="M378.05,164.28a29.77,29.77,0,0,0-8.43,4.95l1.61-4.8-1.83-4.71A30.28,30.28,0,0,0,378.05,164.28Z"/><line class="cls-9" x1="388.98" y1="153.56" x2="388.36" y2="114.21"/><path class="cls-10" d="M388.26,108.18a30.35,30.35,0,0,0,4.89,8.47L388.37,115l-4.73,1.8A30.4,30.4,0,0,0,388.26,108.18Z"/><path class="cls-9" d="M200.18,210.13c0-20-7.46-36.73-17.56-41.5"/><path class="cls-10" d="M176.75,167.28a30.4,30.4,0,0,0,9.45-2.51L183.36,169l.5,5A30.1,30.1,0,0,0,176.75,167.28Z"/><line class="cls-9" x1="168.14" y1="255.17" x2="347.05" y2="255.17"/><line class="cls-9" x1="277.4" y1="235.23" x2="277.4" y2="255.98"/><path class="cls-10" d="M277.4,229.19a30.2,30.2,0,0,1-4.76,8.55L277.4,236l4.75,1.72A30.18,30.18,0,0,1,277.4,229.19Z"/><path class="cls-9" d="M388.38,235.13c-4.38,11.49-21.21,20-41.33,20"/><path class="cls-10" d="M389.49,229.19a30.11,30.11,0,0,1-6.42,7.38l5-.7,4.29,2.67A30.41,30.41,0,0,1,389.49,229.19Z"/><line class="cls-9" x1="200.18" y1="235.23" x2="200.18" y2="255.17"/><path class="cls-10" d="M200.18,229.19a30.45,30.45,0,0,1-4.76,8.55l4.76-1.72,4.75,1.72A30.18,30.18,0,0,1,200.18,229.19Z"/><line class="cls-9" x1="389.07" y1="181.03" x2="389.49" y2="210.13"/><path class="cls-10" d="M389,175a30.23,30.23,0,0,1-4.63,8.61l4.73-1.79,4.78,1.65A30.42,30.42,0,0,1,389,175Z"/><line class="cls-9" x1="277.4" y1="113.9" x2="277.4" y2="210.13"/><path class="cls-10" d="M277.4,107.87a30.28,30.28,0,0,1-4.76,8.54l4.76-1.72,4.75,1.72A30.26,30.26,0,0,1,277.4,107.87Z"/><line class="cls-9" x1="252.71" y1="91" x2="43.07" y2="91"/><path class="cls-10" d="M258.75,91a30.1,30.1,0,0,1-8.55-4.76L251.92,91l-1.72,4.75A30.31,30.31,0,0,1,258.75,91Z"/><path class="cls-9" d="M79.83,91c0,68.49,41.2,124.4,93.28,128.43"/><path class="cls-10" d="M179.14,219.66a30.17,30.17,0,0,0-8.76,4.35l1.94-4.67-1.49-4.83A30.09,30.09,0,0,0,179.14,219.66Z"/><g class="cls-11"><path class="cls-12" d="M193.83,90c0,67.05,25.52,122,58.16,128.11"/><path class="cls-10" d="M258,218.66a30.25,30.25,0,0,0-9,3.88l2.19-4.56L250,213.07A30.15,30.15,0,0,0,258,218.66Z"/></g><path class="cls-12" d="M106,91c0,39,18.69,71.09,42.87,75.71"/><path class="cls-10" d="M154.88,167.28a30.1,30.1,0,0,0-9,3.82l2.21-4.55-1.2-4.91A30.16,30.16,0,0,0,154.88,167.28Z"/><line class="cls-13" x1="165.81" y1="178" x2="165.81" y2="235.72"/><path class="cls-13" d="M216.45,287.11H328.6"/><path class="cls-14" d="M389.49,229.19c0,32-27.23,57.92-60.89,57.92"/><path class="cls-13" d="M165.81,235.72c0,28.41,22.65,51.39,50.64,51.39"/><path class="cls-12" d="M111.89,303.78c0-26.87,25.16-48.61,56.25-48.61"/><path class="cls-9" d="M427.17,26c0,35.37-12.19,64-27.26,64"/></svg>